<svg height="512pt" viewBox="-78 0 512 512.00262" width="512pt" xmlns="http://www.w3.org/2000/svg"><path d="m203.980469 17.851562s-.121094-.128906-.355469-.367187c-13.089844-13.335937-36.304688-13.335937-49.394531 0-.234375.238281-.355469.367187-.355469.367187-20.824219 19.160157-6.113281 50.109376-6.113281 50.109376h62.332031s14.714844-30.949219-6.113281-50.109376zm0 0" fill="#a87a52"/><path d="m210.09375 67.957031h-18.902344s14.714844-30.941406-6.109375-50.101562c0 0-.128906-.136719-.359375-.375-4.242187-4.324219-9.554687-7.246094-15.246094-8.761719 11.84375-3.164062 25.308594-.246094 34.152344 8.761719.230469.238281.347656.375.347656.375 20.832032 19.160156 6.117188 50.101562 6.117188 50.101562zm0 0" fill="#906846"/><path d="m215.054688 399.585938h-74.78125c-53.597657 0-97.050782-43.449219-97.050782-97.050782v-129.332031h268.882813v129.332031c0 53.601563-43.449219 97.050782-97.050781 97.050782zm0 0" fill="#fed2a4"/><path d="m312.101562 173.199219v129.335937c0 53.597656-43.449218 97.050782-97.046874 97.050782h-23.480469c53.59375 0 97.046875-43.453126 97.046875-97.050782v-129.335937zm0 0" fill="#ffbd86"/><path d="m113.613281 328.824219c0 7.988281-6.472656 14.460937-14.460937 14.460937-7.984375 0-14.457032-6.472656-14.457032-14.460937 0-7.984375 6.472657-14.457031 14.457032-14.457031 7.988281 0 14.460937 6.472656 14.460937 14.457031zm0 0" fill="#ff7a7a"/><path d="m270.632812 328.824219c0 7.988281-6.472656 14.460937-14.460937 14.460937-7.984375 0-14.457031-6.472656-14.457031-14.460937 0-7.984375 6.472656-14.457031 14.457031-14.457031 7.988281 0 14.460937 6.472656 14.460937 14.457031zm0 0" fill="#ff7a7a"/><path d="m201.507812 68.074219h-48.480468c-60.78125 0-110.054688 49.273437-110.054688 110.054687v117.195313s23.226563-29.191407 30.445313-91.8125c1.625-14.09375 13.652343-24.6875 27.839843-24.6875h152.019532c14.1875 0 26.214844 10.59375 27.839844 24.6875 7.214843 62.621093 30.445312 91.8125 30.445312 91.8125v-117.195313c0-60.78125-49.273438-110.054687-110.054688-110.054687zm0 0" fill="#a87a52"/><path d="m311.5625 178.132812v117.183594s-13.011719-16.339844-22.582031-50.816406l-.089844-74.871094c0-42.875-24.523437-80.019531-60.308594-98.191406 47.6875 12.058594 82.980469 55.246094 82.980469 106.695312zm0 0" fill="#906846"/><path d="m74.492188 373.882812v49.070313c0 4.785156-1.9375 9.113281-5.070313 12.257813-3.140625 3.128906-7.46875 5.070312-12.257813 5.070312-9.566406 0-17.328124-7.753906-17.328124-17.328125v-24.921875c-.226563-11.976562-6.957032-16.511719-13.683594-26.785156-3.152344-4.816406-7.367188-8.945313-10.078125-14.035156-3.734375-7.019532-4.261719-15.664063-1.417969-23.085938 3.121094-8.136719 10.148438-16.3125 6.886719-24.386719-2.738281-6.769531-9.53125-10.625-12.386719-17.496093-2.984375-7.179688-1.824219-14.179688 2.515625-20.300782 4.214844-5.941406 11.316406-9.542968 18.597656-9.414062 5.859375.101562 11.929688 4.027344 12.886719 9.8125l.066406.207031v29.988281c0 28.214844 12.042969 53.613282 31.269532 71.347656zm0 0" fill="#fed2a4"/><path d="m280.175781 373.882812v49.070313c0 4.785156 1.9375 9.113281 5.070313 12.257813 3.140625 3.128906 7.46875 5.070312 12.257812 5.070312 9.566406 0 17.328125-7.753906 17.328125-17.328125v-24.921875c.226563-11.976562 6.957031-16.511719 13.683594-26.785156 3.152344-4.816406 7.367187-8.945313 10.078125-14.035156 3.734375-7.019532 4.261719-15.664063 1.417969-23.085938-3.121094-8.136719-10.148438-16.3125-6.886719-24.386719 2.738281-6.769531 9.53125-10.625 12.386719-17.496093 2.984375-7.179688 1.824219-14.179688-2.515625-20.300782-4.214844-5.941406-11.316406-9.542968-18.597656-9.414062-5.859376.101562-11.929688 4.027344-12.886719 9.8125l-.066407.207031v29.988281c0 28.214844-12.042968 53.613282-31.269531 71.347656zm0 0" fill="#fed2a4"/><path d="m333.125 309.742188c-3.257812 8.070312 3.761719 16.242187 6.890625 24.382812 2.84375 7.421875 2.3125 16.0625-1.417969 23.085938-2.710937 5.089843-6.933594 9.21875-10.082031 14.039062-6.722656 10.273438-13.460937 14.804688-13.683594 26.785156v24.914063c0 9.582031-7.757812 17.332031-17.332031 17.332031-2.6875 0-5.230469-.609375-7.5-1.710938 5.820312-2.789062 9.832031-8.730468 9.832031-15.621093v-24.914063c.21875-11.980468 6.960938-16.511718 13.679688-26.785156 3.152343-4.820312 7.371093-8.949219 10.082031-14.039062 3.730469-7.023438 4.261719-15.664063 1.421875-23.085938-3.132813-8.140625-10.152344-16.3125-6.890625-24.382812 2.738281-6.769532 9.53125-10.628907 12.378906-17.5 2.992188-7.183594 1.832032-14.171876-2.507812-20.292969-2.5-3.523438-6-6.222657-9.960938-7.8125 1.96875-1 4.179688-1.570313 6.359375-1.609375 7.292969-.128906 14.382813 3.46875 18.601563 9.421875 4.34375 6.121093 5.503906 13.109375 2.511718 20.292969-2.851562 6.871093-9.640624 10.730468-12.382812 17.5zm0 0" fill="#ffbd86"/><path d="m191.023438 227.210938c0 7.375-5.980469 13.359374-13.359376 13.359374-7.378906 0-13.359374-5.984374-13.359374-13.359374 0-7.378907 5.980468-13.359376 13.359374-13.359376 7.378907 0 13.359376 5.980469 13.359376 13.359376zm0 0" fill="#ff4343"/><path d="m243.605469 504.5v-41.472656c0-13.847656-6.792969-27.101563-18.023438-35.199219-5.675781-4.09375-12.320312-6.773437-19.25-7.75-8.984375-1.265625-9.105469-.992187-9.105469-10.402344 0-.023437 0-10.089843 0-10.089843h-39.085937v10.089843c0 9.410157-.121094 9.136719-9.105469 10.402344-6.929687.976563-13.574218 3.65625-19.25 7.75-11.230468 8.097656-18.023437 21.351563-18.023437 35.199219v41.472656zm0 0" fill="#fed2a4"/><path d="m243.605469 463.027344v41.472656h-131.84375v-36.621094c64.339843.972656 107.902343-43.640625 107.902343-43.640625 2.070313 1.039063 4.050782 2.238281 5.917969 3.585938 11.230469 8.101562 18.023438 21.351562 18.023438 35.203125zm0 0" fill="#ffc143"/><path d="m193.625 327.4375c-4.144531 0-7.5 3.359375-7.5 7.5v.730469c0 4.667969-3.796875 8.460937-8.460938 8.460937-4.664062 0-8.460937-3.792968-8.460937-8.460937v-.730469c0-4.140625-3.355469-7.5-7.5-7.5s-7.5 3.359375-7.5 7.5v.730469c0 12.9375 10.523437 23.460937 23.460937 23.460937s23.460938-10.523437 23.460938-23.460937v-.730469c0-4.140625-3.355469-7.5-7.5-7.5zm0 0"/><path d="m245.175781 287.289062c2.917969-2.941406 2.90625-7.6875-.03125-10.609374-2.9375-2.917969-7.6875-2.90625-10.609375.03125-.046875.050781-5.15625 4.738281-15.238281-1.179688-3.574219-2.097656-8.167969-.902344-10.269531 2.671875-2.097656 3.570313-.898438 8.167969 2.671875 10.265625 6.441406 3.78125 12.132812 5.082031 16.90625 5.082031 10.171875 0 16.207031-5.898437 16.570312-6.261719zm0 0"/><path d="m133.855469 276.710938c-.050781.050781-5.160157 4.738281-15.242188-1.179688-3.570312-2.097656-8.167969-.902344-10.265625 2.671875-2.097656 3.570313-.902344 8.167969 2.671875 10.265625 6.441407 3.78125 12.128907 5.082031 16.90625 5.082031 10.171875 0 16.207031-5.898437 16.570313-6.261719 2.917968-2.941406 2.902344-7.6875-.035156-10.609374-2.933594-2.917969-7.6875-2.90625-10.605469.03125zm0 0"/><path d="m177.664062 206.351562c-11.503906 0-20.859374 9.355469-20.859374 20.859376 0 11.5 9.355468 20.859374 20.859374 20.859374 11.503907 0 20.859376-9.359374 20.859376-20.859374 0-11.503907-9.355469-20.859376-20.859376-20.859376zm0 26.714844c-3.230468 0-5.859374-2.625-5.859374-5.855468 0-3.230469 2.628906-5.859376 5.859374-5.859376 3.230469 0 5.859376 2.628907 5.859376 5.859376 0 3.230468-2.628907 5.855468-5.859376 5.855468zm0 0"/><path d="m345.871094 306.023438c2.648437-2.949219 5.652344-6.292969 7.566406-10.902344 3.855469-9.277344 2.679688-19.050782-3.324219-27.515625-5.621093-7.929688-15.140625-12.761719-24.847656-12.578125-2.019531.035156-3.976563.359375-5.839844.90625l-.296875-77.804688c0-58.503906-42.960937-107.15625-98.988281-116.085937.886719-3.167969 1.722656-6.984375 2.167969-11.160157 1.65625-15.613281-2.859375-28.878906-13.054688-38.371093-.074218-.078125-.164062-.171875-.273437-.28125-11.972657-12.1953128-31.59375-15.710938-47.722657-8.546875-3.785156 1.679687-5.492187 6.113281-3.8125 9.898437 1.683594 3.785157 6.113282 5.496094 9.902344 3.8125 10.527344-4.675781 23.246094-2.480469 30.917969 5.339844l.21875.222656c.132813.144531.269531.28125.417969.414063 6.707031 6.171875 9.578125 14.765625 8.527344 25.535156-.449219 4.589844-1.539063 8.679688-2.484376 11.554688h-52.035156c-.917968-2.792969-1.972656-6.730469-2.441406-11.160157-.4375-4.117187-4.121094-7.109375-8.25-6.667969-4.121094.4375-7.105469 4.132813-6.667969 8.25.421875 3.984376 1.207031 7.632813 2.046875 10.714844-57.523437 7.609375-102.058594 56.964844-102.058594 116.535156l.113282 77.625c-1.683594-.441406-3.445313-.699218-5.25-.730468-9.707032-.171875-19.226563 4.648437-24.847656 12.578125-6.003907 8.464843-7.183594 18.234375-3.324219 27.515625 1.914062 4.609375 4.917969 7.953125 7.566406 10.902344 2.097656 2.335937 3.910156 4.355468 4.789063 6.53125 1 2.476562-.707032 6.128906-3.433594 11.417968-1.226563 2.378906-2.496094 4.84375-3.503906 7.472656-3.609376 9.433594-2.9375 20.382813 1.804687 29.289063 1.945313 3.65625 6.488281 5.046875 10.144531 3.097656 3.65625-1.945312 5.042969-6.488281 3.097656-10.144531-8.703124-16.355469 12.328126-30.613281 5.800782-46.757812-2.832032-7-9.542969-10.660157-12.414063-17.570313-1.882812-4.523437-1.320312-8.800781 1.710938-13.078125 2.792969-3.941406 7.492187-6.339844 12.34375-6.253906 2.460937.042968 5.035156 1.597656 5.542969 3.269531l.042968 28.585937v.65625c0 19.460938 5.511719 38.738282 15.828125 55.242188 4.339844 6.980469 9.507813 13.480469 15.441407 19.316406v45.855469c0 2.625-1.023438 5.101563-2.863282 6.945313-1.867187 1.859374-4.339844 2.882812-6.964844 2.882812-5.417968 0-9.828124-4.40625-9.828124-9.828125v-24.917969c0-4.144531-3.355469-7.503906-7.5-7.503906-4.144532 0-7.5 3.359375-7.5 7.503906v24.917969c0 13.691406 11.136718 24.832031 24.828124 24.832031 6.625 0 12.855469-2.578125 17.570313-7.277344 4.683594-4.695312 7.257813-10.929687 7.257813-17.554687v-33.65625c16.664062 11.230469 36.71875 17.792969 58.28125 17.792969h10.367187s0 4.339844-.023437 5.1875c-9.109376 1.367187-17.574219 3.957031-25.21875 9.46875-13.234376 9.546875-21.136719 24.980468-21.136719 41.285156v41.46875c0 4.144531 3.359375 7.503906 7.5 7.503906h131.84375c4.144531 0 7.5-3.359375 7.5-7.503906v-41.46875c0-16.296875-8.136719-31.789062-21.140625-41.261719-5.15625-3.753906-10.746094-6.355469-16.902344-7.972656-1.046875-.273437-7.796875-.675781-8.320312-1.535156-.015626-.84375-.015626-5.171875-.015626-5.171875h10.328126c21.707031 0 41.890624-6.652344 58.617187-18.023438v33.890625c0 6.625 2.578125 12.859375 7.277344 17.566407 4.695312 4.683593 10.929687 7.261718 17.554687 7.261718 13.6875 0 24.828125-11.140625 24.828125-24.828125v-24.847656c.136719-6.28125 2.539063-9.410156 6.894531-15.074219 5.625-7.3125 11.597657-14.050781 15.988282-22.296875 4.738281-8.90625 5.414062-19.855469 1.800781-29.296875-1.007813-2.621094-2.277344-5.085937-3.503906-7.46875-2.722657-5.289062-4.433594-8.9375-3.433594-11.417968.882813-2.175782 2.695313-4.195313 4.792969-6.53125zm-295.332032-127.894532c0-56.546875 46.003907-102.554687 102.554688-102.554687h48.480469c56.546875 0 102.554687 46.007812 102.554687 102.554687v87.445313c-5.945312-14.4375-12.308594-35.273438-15.492187-62.921875-2.058594-17.859375-17.230469-31.328125-35.292969-31.328125h-152.019531c-18.0625 0-33.234375 13.46875-35.292969 31.328125-3.265625 28.335937-9.941406 49.378906-15.492188 62.894531zm83.636719 255.78125c4.695313-3.382812 10.195313-5.601562 15.910157-6.402344l.773437-.109374c5.078125-.710938 9.089844-1.273438 12.003906-4.832032 2.78125-3.394531 2.78125-7.378906 2.78125-12.890625v-2.589843h24.082031v2.589843c0 5.511719 0 9.496094 2.777344 12.890625 2.914063 3.558594 6.929688 4.121094 12.007813 4.832032h.011719c-14.851563 11.566406-45.589844 31.152343-85.140626 32.875.816407-10.464844 6.207032-20.167969 14.792969-26.363282zm86.503907-.347656c.167968.121094.347656.226562.515624.347656 9.335938 6.734375 14.910157 17.621094 14.910157 29.117188v33.972656h-116.839844v-21.703125c51.792969-1.914063 89.089844-30.804687 101.414063-41.734375zm-5.625-41.476562h-74.78125c-31.957032 0-60.054688-16.832032-75.902344-42.089844-10.066406-16.042969-13.652344-33.84375-13.644532-52.503906 5.839844-8.496094 23.925782-38.578126 30.210938-93.121094 1.1875-10.285156 9.949219-18.042969 20.390625-18.042969h152.015625c10.4375 0 19.203125 7.757813 20.390625 18.042969 6.546875 56.8125 25.894531 87.082031 30.871094 94.0625v4.101562c-.003907 49.378906-40.171875 89.550782-89.550781 89.550782zm124.53125-102.722657c-.9375 2.246094-2.761719 4.28125-4.878907 6.636719-2.65625 2.960938-5.667969 6.316406-7.535156 10.929688-3.65625 9.039062.59375 17.285156 4.003906 23.910156 1.09375 2.117187 2.121094 4.117187 2.832031 5.96875 2.082032 5.4375 1.691407 11.75-1.035156 16.878906-1.265625 2.375-3.101562 4.691406-5.042968 7.140625-1.570313 1.980469-3.195313 4.027344-4.6875 6.3125-1.632813 2.488281-3.296876 4.652344-4.90625 6.75-4.8125 6.257813-9.792969 12.730469-10.003907 24v.140625 24.921875c0 5.417969-4.410156 9.828125-9.828125 9.828125-2.625 0-5.097656-1.023438-6.945312-2.867188-1.859375-1.863281-2.882813-4.335937-2.882813-6.960937v-45.855469c19.914063-19.585937 31.273438-46.570312 31.273438-74.558594v-29.140624c.429687-1.710938 3.070312-3.324219 5.582031-3.371094 4.867188-.070313 9.550781 2.3125 12.34375 6.253906 3.03125 4.277344 3.589844 8.554688 1.710938 13.082031zm0 0"/></svg>