<?xml version="1.0" encoding="utf-8"?>
<!-- Generator: Adobe Illustrator 22.0.1, SVG Export Plug-In . SVG Version: 6.00 Build 0)  -->
<svg version="1.1" id="Capa_1" xmlns="http://www.w3.org/2000/svg" xmlns:xlink="http://www.w3.org/1999/xlink" x="0px" y="0px"
	 viewBox="0 0 512 512" style="enable-background:new 0 0 512 512;" xml:space="preserve">
<style type="text/css">
	.st0{fill:#D3DAE0;}
	.st1{fill:#899EA8;}
	.st2{fill:#B6DAEB;}
	.st3{fill:#5A8291;}
	.st4{fill:#0D0D22;}
	.st5{fill:#4C6482;}
</style>
<path class="st0" d="M321.1,233.6v-72c0-71.1-57.7-128.8-128.8-128.8c-71.1,0-128.8,57.7-128.8,128.8v72 M110,233.6v-72
	c0-45.4,36.9-82.4,82.4-82.4s82.3,36.9,82.3,82.4v72"/>
<g>
	<path class="st1" d="M199.9,33.1c-2.5-0.1-5-0.2-7.5-0.2c-71.1,0-128.8,57.7-128.8,128.8v72h15v-72C78.6,93,132.2,37,199.9,33.1z"
		/>
	<path class="st1" d="M207.4,79.3c-2.5,0-5,0.1-7.5,0.3c41.9,3.8,74.8,39.1,74.8,82v72h15v-72C289.7,116.2,252.8,79.3,207.4,79.3z"
		/>
</g>
<rect x="20.9" y="233.6" class="st2" width="342.9" height="245.5"/>
<rect x="20.9" y="233.6" class="st3" width="30.1" height="245.5"/>
<path class="st4" d="M297.9,168.5c0,36.8,20.6,68.7,50.8,85v70.7l-15,24.1l15,24.1l-15,24.1l15,24.1l-15,24.1l64.7,34.6l42-15V253.5
	c30.2-16.3,50.8-48.3,50.8-85c0-53.3-43.3-96.5-96.6-96.5C341.1,72,297.9,115.2,297.9,168.5z M394.5,105.3
	c18.1,0,32.8,14.7,32.8,32.8s-14.7,32.8-32.8,32.8c-18.1,0-32.8-14.7-32.8-32.8C361.7,119.9,376.4,105.3,394.5,105.3z"/>
<path class="st5" d="M402.3,53.9c-33.9,0-64.2,15.4-84.3,39.6c-10.6-21.8-26.4-40.5-46.5-54.7c-24.2-17.1-52.6-26.1-82.2-26.2
	C110,12.3,45,78.5,45,157.8v66.9H7.6c-4.2,0-7.6,3.4-7.6,7.6v188.2c0,4.2,3.4,7.6,7.6,7.6l0,0c4.2,0,7.6-3.4,7.6-7.6V240h308.5
	c6.6,6.8,14.2,12.9,22.6,17.9v68.1l-14.7,23.6c-1.5,2.5-1.5,5.6,0,8.1L345,379l-13.4,21.4c-1.5,2.5-1.5,5.6,0,8.1l13.4,21.4
	l-13.4,21.4c-1.1,1.8-1.4,4-0.9,6s1.9,3.8,3.8,4.7l27.8,14.9v7.4H15.2V455c0-4.2-3.4-7.6-7.6-7.6l0,0c-4.2,0-7.6,3.4-7.6,7.6v36.8
	c0,4.2,3.4,7.6,7.6,7.6h362.3c4.2,0,7.6-3.4,7.6-7.6V485l25.3,13.5c1.1,0.6,2.3,0.9,3.6,0.9c0.9,0,1.7-0.1,2.6-0.4l44.4-15.9
	c3-1.1,5-3.9,5-7.2V294.3c0-4.2-3.4-7.6-7.6-7.6l0,0c-4.2,0-7.6,3.4-7.6,7.6v176.2L414,481V252.9c0-4.2-3.2-7.8-7.4-7.9
	c-4.3-0.1-7.8,3.3-7.8,7.6v226.5l-49.9-26.7l11.6-18.5c1.5-2.5,1.5-5.6,0-8.1L347,404.4l13.4-21.4c1.5-2.5,1.5-5.6,0-8.1L347,353.5
	l13.4-21.4c0.8-1.2,1.2-2.6,1.2-4v-74.7c0-2.8-1.6-5.4-4.1-6.7c-30.6-16.6-49.6-48.4-49.6-83.1c0-52.1,42.4-94.4,94.5-94.4
	s94.5,42.3,94.5,94.4c0,34.7-19,66.6-49.7,83.2c-2.5,1.3-4,3.9-4,6.7v6.5c0,4.2,3.4,7.6,7.6,7.6l0,0c4.2,0,7.6-3.4,7.6-7.6v-2
	c33.2-19.7,53.7-55.5,53.7-94.3C512,103.1,462.8,53.9,402.3,53.9z M268.2,224.8H109.3v-68.5c0-43.8,35.6-79.4,79.4-79.4
	c43.8,0,79.4,35.6,79.4,79.4L268.2,224.8L268.2,224.8z M311.4,224.8h-28v-68.5c0-52.2-42.4-94.6-94.6-94.6
	c-52.2,0-94.6,42.4-94.6,94.6v68.5H60.3v-68.5c0-70.9,57.6-128.5,128.5-128.5c26.7,0,52.3,8.1,74,23.5c20.3,14.3,35.8,33.9,45,56.7
	c-9.6,16.3-15.2,35.3-15.2,55.5C292.7,185.8,299.4,207,311.4,224.8z"/>
<path class="st5" d="M374.5,252.6v170.1c0,4.2,3.4,7.6,7.6,7.6s7.6-3.4,7.6-7.6V252.6c0-4.2-3.4-7.6-7.6-7.6
	S374.5,248.4,374.5,252.6z"/>
<path class="st5" d="M444.6,131.4c0-23.3-18.9-42.2-42.2-42.2s-42.2,18.9-42.2,42.2s18.9,42.2,42.2,42.2
	C425.6,173.6,444.6,154.6,444.6,131.4z M375.3,131.4c0-14.9,12.1-27,27-27c14.9,0,27,12.1,27,27c0,14.9-12.1,27-27,27
	C387.4,158.4,375.3,146.3,375.3,131.4z"/>
</svg>
