<svg id="圖層_1" data-name="圖層 1" xmlns="http://www.w3.org/2000/svg" viewBox="0 0 240 240"><defs><style>.cls-1{fill:#3740af;}.cls-2{fill:#ddb372;}</style></defs><title>logo-mini</title><path class="cls-1" d="M382,421A113,113,0,1,1,495,308,113.13,113.13,0,0,1,382,421Zm0-152a39,39,0,1,0,39,39A39.05,39.05,0,0,0,382,269Z" transform="translate(-262 -188)"/><path class="cls-2" d="M382,202A106,106,0,1,1,276,308,106.12,106.12,0,0,1,382,202m0,152a46,46,0,1,0-46-46,46.06,46.06,0,0,0,46,46m0-166A120,120,0,1,0,502,308,120,120,0,0,0,382,188Zm0,152a32,32,0,1,1,32-32,32,32,0,0,1-32,32Z" transform="translate(-262 -188)"/></svg>